<svg 
  id="visual" 
  viewBox="0 0 960 540" 
  width="960" 
  height="540" 
  xmlns="http://www.w3.org/2000/svg" 
  xmlns:xlink="http://www.w3.org/1999/xlink" 
  version="1.1">
    <rect x="0" y="0" width="960" height="540" fill="#15803d"></rect>
    <path d="M0 156L22.8 157C45.7 158 91.3 160 137 155.5C182.7 151 228.3 140 274 128C319.7 116 365.3 103 411.2 103C457 103 503 116 548.8 112.2C594.7 108.3 640.3 87.7 686 87.7C731.7 87.7 777.3 108.3 823 121.2C868.7 134 914.3 139 937.2 141.5L960 144L960 0L937.2 0C914.3 0 868.7 0 823 0C777.3 0 731.7 0 686 0C640.3 0 594.7 0 548.8 0C503 0 457 0 411.2 0C365.3 0 319.7 0 274 0C228.3 0 182.7 0 137 0C91.3 0 45.7 0 22.8 0L0 0Z" fill="#ffffff" stroke-linecap="round" stroke-linejoin="miter">
    </path>
</svg>